<svg xmlns="http://www.w3.org/2000/svg" xmlns:xlink="http://www.w3.org/1999/xlink" width="40" zoomAndPan="magnify" viewBox="0 0 30 30.000001" height="40" preserveAspectRatio="xMidYMid meet" version="1.0"><defs><g/><clipPath id="592c4e418f"><path d="M 0.484375 0 L 29.515625 0 L 29.515625 29.03125 L 0.484375 29.03125 Z M 0.484375 0 " clip-rule="nonzero"/></clipPath></defs><g clip-path="url(#592c4e418f)"><path fill="#ffffff" d="M 0.484375 0 L 29.515625 0 L 29.515625 36.289062 L 0.484375 36.289062 Z M 0.484375 0 " fill-opacity="1" fill-rule="nonzero"/><path fill="#ffffff" d="M 0.484375 0 L 29.515625 0 L 29.515625 29.03125 L 0.484375 29.03125 Z M 0.484375 0 " fill-opacity="1" fill-rule="nonzero"/><path fill="#14213d" d="M 0.484375 0 L 29.515625 0 L 29.515625 29.03125 L 0.484375 29.03125 Z M 0.484375 0 " fill-opacity="1" fill-rule="nonzero"/></g><g fill="#ffffff" fill-opacity="1"><g transform="translate(1.192839, 21.925202)"><g><path d="M 0.753906 -6.714844 C 0.753906 -4.84375 1.5625 -3.125 2.71875 -1.890625 C 3.898438 -0.65625 5.59375 0.0976562 7.425781 0.0976562 C 10.570312 0.0976562 13.042969 -1.988281 13.8125 -5.054688 L 11.902344 -5.054688 C 11.207031 -3.007812 9.472656 -1.832031 7.425781 -1.832031 C 6.136719 -1.832031 4.84375 -2.371094 3.992188 -3.261719 C 3.144531 -4.148438 2.644531 -5.363281 2.644531 -6.714844 C 2.644531 -8.101562 3.164062 -9.296875 4.011719 -10.1875 C 4.863281 -11.074219 6.136719 -11.691406 7.425781 -11.691406 C 9.414062 -11.691406 11.074219 -10.609375 11.789062 -8.585938 L 13.714844 -8.585938 C 12.945312 -11.632812 10.515625 -13.621094 7.425781 -13.621094 C 5.59375 -13.621094 3.839844 -12.769531 2.664062 -11.554688 C 1.503906 -10.320312 0.753906 -8.625 0.753906 -6.714844 Z M 0.753906 -6.714844 "/></g></g></g><g fill="#ffffff" fill-opacity="1"><g transform="translate(15.737963, 21.925202)"><g><path d="M 12.367188 -13.640625 L 10.28125 -13.640625 L 6.171875 -3.394531 L 2.101562 -13.640625 L -0.0195312 -13.640625 L 5.460938 0.0390625 L 6.886719 0.0390625 Z M 12.367188 -13.640625 "/></g></g></g></svg>