<svg xmlns="http://www.w3.org/2000/svg" xmlns:xlink="http://www.w3.org/1999/xlink" width="40" zoomAndPan="magnify" viewBox="0 0 30 30.000001" height="40" preserveAspectRatio="xMidYMid meet" version="1.0"><defs><g/></defs><g fill="#000000" fill-opacity="1"><g transform="translate(3.389931, 20.916489)"><g><path d="M 6.53125 -12.71875 C 7.238281 -12.71875 7.835938 -12.613281 8.328125 -12.40625 C 8.816406 -12.207031 9.296875 -11.925781 9.765625 -11.5625 C 9.898438 -11.457031 10.015625 -11.40625 10.109375 -11.40625 C 10.335938 -11.40625 10.488281 -11.757812 10.5625 -12.46875 L 10.96875 -12.46875 C 10.925781 -11.707031 10.90625 -10.359375 10.90625 -8.421875 L 10.5 -8.421875 C 10.363281 -9.179688 10.242188 -9.726562 10.140625 -10.0625 C 10.035156 -10.394531 9.859375 -10.71875 9.609375 -11.03125 C 9.265625 -11.476562 8.816406 -11.816406 8.265625 -12.046875 C 7.722656 -12.273438 7.132812 -12.390625 6.5 -12.390625 C 5.738281 -12.390625 5.070312 -12.132812 4.5 -11.625 C 3.925781 -11.125 3.476562 -10.40625 3.15625 -9.46875 C 2.84375 -8.539062 2.6875 -7.453125 2.6875 -6.203125 C 2.6875 -4.921875 2.859375 -3.820312 3.203125 -2.90625 C 3.546875 -1.988281 4.019531 -1.289062 4.625 -0.8125 C 5.226562 -0.34375 5.910156 -0.109375 6.671875 -0.109375 C 7.253906 -0.109375 7.820312 -0.21875 8.375 -0.4375 C 8.925781 -0.664062 9.363281 -1 9.6875 -1.4375 C 9.914062 -1.769531 10.082031 -2.125 10.1875 -2.5 C 10.300781 -2.875 10.40625 -3.445312 10.5 -4.21875 L 10.90625 -4.21875 C 10.90625 -2.207031 10.925781 -0.800781 10.96875 0 L 10.5625 0 C 10.53125 -0.375 10.476562 -0.640625 10.40625 -0.796875 C 10.34375 -0.953125 10.253906 -1.03125 10.140625 -1.03125 C 10.046875 -1.03125 9.921875 -0.984375 9.765625 -0.890625 C 9.242188 -0.515625 8.738281 -0.226562 8.25 -0.03125 C 7.769531 0.15625 7.191406 0.25 6.515625 0.25 C 5.398438 0.25 4.421875 0 3.578125 -0.5 C 2.742188 -1.007812 2.09375 -1.742188 1.625 -2.703125 C 1.164062 -3.660156 0.9375 -4.800781 0.9375 -6.125 C 0.9375 -7.414062 1.171875 -8.5625 1.640625 -9.5625 C 2.117188 -10.5625 2.78125 -11.335938 3.625 -11.890625 C 4.476562 -12.441406 5.445312 -12.71875 6.53125 -12.71875 Z M 6.53125 -12.71875 "/></g></g></g><g fill="#000000" fill-opacity="1"><g transform="translate(15.507043, 20.916489)"><g><path d="M 9.890625 -12.421875 C 10.421875 -12.421875 10.863281 -12.4375 11.21875 -12.46875 L 11.21875 -12.109375 C 10.632812 -11.972656 10.171875 -11.460938 9.828125 -10.578125 L 5.6875 0.09375 L 5.40625 0.09375 L 1.109375 -10.984375 C 0.828125 -11.710938 0.421875 -12.085938 -0.109375 -12.109375 L -0.109375 -12.46875 C 0.359375 -12.4375 0.988281 -12.421875 1.78125 -12.421875 C 2.789062 -12.421875 3.539062 -12.4375 4.03125 -12.46875 L 4.03125 -12.109375 C 3.582031 -12.085938 3.257812 -12.03125 3.0625 -11.9375 C 2.875 -11.851562 2.78125 -11.695312 2.78125 -11.46875 C 2.78125 -11.269531 2.851562 -10.992188 3 -10.640625 L 6.1875 -2.171875 L 9.046875 -9.609375 C 9.285156 -10.242188 9.40625 -10.726562 9.40625 -11.0625 C 9.40625 -11.425781 9.273438 -11.6875 9.015625 -11.84375 C 8.765625 -12.007812 8.382812 -12.097656 7.875 -12.109375 L 7.875 -12.46875 C 8.539062 -12.4375 9.210938 -12.421875 9.890625 -12.421875 Z M 9.890625 -12.421875 "/></g></g></g></svg>